<svg width="162" height="41" fill="none" xmlns="http://www.w3.org/2000/svg"><path fill-rule="evenodd" clip-rule="evenodd" d="M154.373 2.994l6.766.042S148.56 21.894 147.533 23.43c-.334.498-.841 1.035-1.098 1.7-.649 1.673-1.316 5.342-1.316 5.342l-6.191.034s.963-3.825.923-5.862c-.035-1.78-.856-3.557-1.316-5.341-.466-1.807-1.098-5.342-1.098-5.342h6.365l.878 3.885 9.693-14.853z" fill="#1A1918"/><path fill-rule="evenodd" clip-rule="evenodd" d="M141.561 6.972c1.249.833 2.015 5.426 2.015 5.426s-6.533.107-10.089.107h-3.072l-3.731 17.968h-5.706s3.551-19.526 4.39-23.067c.272-1.146 1.861-.95 4.544-.95h4.286c2.768 0 6.003-.39 7.363.516zm-26.563 8.75s.178-1.153-.603-2.488c-.667-1.14-1.284-1.404-3.039-1.464-4.958-.173-4.862 3.892-4.862 3.892l8.504.06zm5.377-4.654c.727 2.9-.658 9.712-.658 9.712s-7.232-.134-11.192 0c-1.232.041-2.706-.148-3.073.486-.516.888.189 2.256.786 2.833.687.666 2.025.74 2.506.809 3.215.451 9.944.116 9.944.116l-1.166 5.71s-9.509.528-14.265-.728c-.939-.247-1.819-.747-2.414-1.456-.162-.194-.303-.459-.456-.687-.123-.183-.48-.782-.64-1.256-1.087-3.202.126-9.338 1.316-12.625.138-.382.311-.865.494-1.275.228-.512.421-1.09.603-1.396.123-.211.275-.348.402-.547.147-.235.318-.463.476-.667.439-.564.937-.962 1.536-1.457 1.982-1.641 5.568-2.916 9.876-2.428 1.622.184 4.071.825 5.267 2.67.32.494.478 1.472.658 2.186zm-26.17-4.633l5.532-.037s-3.083 16.183-4.654 24.075h-6.365c-4.448 0-8.41.61-10.094-2.914-1.635-3.421-.075-9.047.658-12.869.518-2.705 1.609-8.233 1.609-8.233l5.732-.059s-1.62 8.608-2.294 12.905c-.241 1.54-.739 2.99-.22 4.128.495 1.083 1.186 1.16 3.293 1.214.667.017 2.853 0 2.853 0l3.95-18.21zM68.31 18.09c.578-2.278 1.423-4.747 1.316-6.8-.116-2.194-1.78-4.192-2.853-4.612-3.232-1.263-6.259.502-7.461 1.942-1.557 1.865-2.083 4.043-2.634 7.042-.41 2.226-.746 4.576 0 6.312 1.32 3.07 5.44 2.4 9.875 2.429.659-1.952 1.203-4.145 1.756-6.313zm7.68-8.984c.632 5.084-1.793 10.696-3.463 15.576 1.703.17 3.195-.027 3.303.114.112.182-1.141 5.825-1.578 5.84-1.352.038-5.83.08-7.699.08-6.094 0-11.795.439-14.703-2.914-1.18-1.362-1.997-3.698-2.195-5.342-.329-2.744.084-5.764.659-8.255.52-2.249 1.187-4.37 2.194-6.313C55.07 2.946 59.524-.725 66.992.122c1.449.165 3.53.867 4.828 1.7.09.058.404.335.477.383 1.755 1.236 3.355 4.186 3.693 6.9zM49.026 6.464c-.37 1.858-.738 3.963-1.126 5.798h-6.145c.476-2.034.84-4.057 1.317-5.827 1.966 0 3.794.03 5.954.03zm-7.49 7.498h5.925c-.775 4.745-2.309 12.398-3.511 17.725-.753 3.333-1.256 5.766-3.292 7.527-.183.158-.288.083-.44.243-.375.396-2.11.855-3.072.97-1.562.188-3.329.025-5.249-.018.503-2.033 1.071-4.473 1.519-6.294 4.68.627 4.8-4.269 5.706-8.984.524-2.724 2.113-10.076 2.414-11.17z" fill="#1A1918"/><path fill-rule="evenodd" clip-rule="evenodd" d="M27.71 26.345l-.127.364c-2.164 4.662-5.998 7.522-11.467 7.649-2.556.058-4.992-.668-6.584-1.457-3.434-1.707-6.322-4.873-7.9-8.256-2.263-4.848-2.67-11.593 2.034-16.632.073 0-.57 1.093-.498 1.093l-.13.466c-3.39 11.745 7.056 21.809 17.21 20.658 2.44-.277 5.553-1.755 7.462-3.885z" fill="#21609B"/><path fill-rule="evenodd" clip-rule="evenodd" d="M21.565 21.489c2.555.02 5.223-1.302 6.803-3.156-1.382 3.882-5.385 6.378-10.753 5.584-4.494-.665-8.776-5.67-9.217-10.684-.323-3.649.827-5.827 2.721-8.468-.658 1.381-.904 2.447-.966 3.127-.72 7.894 5.7 13.556 11.412 13.597z" fill="#21609B"/><path fill-rule="evenodd" clip-rule="evenodd" d="M28.112 11.684c-.398 1.008-2.684 2.912-3.694 3.15-3.998.942-6.56-1.156-7.9-3.543-.2-.357-.569-1.33-.635-1.578-.52-1.957-.28-4.917 1.271-6.45-.467 1.458-.535 3.15-.29 4.25.15.665.604 1.826 1.058 2.557.827 1.33 1.352 1.654 2.414 2.36.479.318.992.573 1.214.643 1.007.328 3.133 1.193 6.562-1.389z" fill="#21609B"/></svg>