<svg width="193" height="85" fill="none" xmlns="http://www.w3.org/2000/svg"><g filter="url(#filter0_d_118_246)"><path d="M83.196 35V15.488h6.84V35h-6.84zm3.42-21.672c-1.248 0-2.256-.348-3.024-1.044-.768-.696-1.152-1.56-1.152-2.592s.384-1.896 1.152-2.592c.768-.696 1.776-1.044 3.024-1.044s2.256.336 3.024 1.008c.768.648 1.152 1.488 1.152 2.52 0 1.08-.384 1.98-1.152 2.7-.744.696-1.752 1.044-3.024 1.044zM100.169 31.4l.18-8.172 7.956-7.74h8.1l-8.82 9.108-3.492 2.808-3.924 3.996zM94.481 35V8.288h6.84V35h-6.84zm14.328 0l-5.976-7.488 4.248-5.256L117.089 35h-8.28zm19.732.324c-2.304 0-4.32-.432-6.048-1.296-1.704-.888-3.036-2.088-3.996-3.6-.936-1.536-1.404-3.276-1.404-5.22s.456-3.672 1.368-5.184c.936-1.536 2.22-2.724 3.852-3.564 1.632-.864 3.468-1.296 5.508-1.296 1.92 0 3.672.396 5.256 1.188a8.965 8.965 0 013.78 3.42c.936 1.512 1.404 3.348 1.404 5.508 0 .24-.012.516-.036.828-.024.312-.048.6-.072.864h-15.444v-3.6h11.808l-2.592 1.008c.024-.888-.144-1.656-.504-2.304a3.645 3.645 0 00-1.44-1.512c-.6-.36-1.308-.54-2.124-.54-.816 0-1.536.18-2.16.54-.6.36-1.068.876-1.404 1.548-.336.648-.504 1.416-.504 2.304v1.044c0 .96.192 1.788.576 2.484a4.174 4.174 0 001.728 1.62c.744.36 1.632.54 2.664.54.96 0 1.776-.132 2.448-.396.696-.288 1.38-.72 2.052-1.296l3.6 3.744c-.936 1.032-2.088 1.824-3.456 2.376-1.368.528-2.988.792-4.86.792z" fill="#fff"/></g><path d="M6.484 68.208l3.641-19.343h2.406l.719 3-3.906 19.75h-2.61l-.25-3.407zm-1.25-19.343l2.938 19.39-.5 3.36H4.797L.719 48.865h4.515zm10.657 19.312l2.921-19.312h4.5l-4.046 22.75h-2.891l-.484-3.438zm-1.97-19.312l3.673 19.453-.297 3.297h-2.61l-3.89-19.782.734-2.968h2.39zm18.017 23.062c-1.157 0-2.183-.177-3.079-.531a6.089 6.089 0 01-2.25-1.531c-.614-.677-1.083-1.495-1.406-2.454-.323-.958-.484-2.052-.484-3.28V62.74c0-1.375.156-2.579.468-3.61.313-1.041.756-1.916 1.329-2.625a5.248 5.248 0 012.109-1.578c.844-.354 1.797-.531 2.86-.531 1.062 0 1.994.177 2.796.531a4.878 4.878 0 012.016 1.563c.531.687.932 1.541 1.203 2.562.27 1.02.406 2.208.406 3.563v2H26.578v-3.079h7.031v-.39c0-.688-.073-1.26-.218-1.719-.146-.469-.375-.818-.688-1.047-.312-.229-.729-.344-1.25-.344-.437 0-.807.089-1.11.266-.301.177-.54.453-.718.828-.177.375-.307.865-.39 1.469a15.677 15.677 0 00-.126 2.14v1.391c0 .781.068 1.438.203 1.969.136.52.334.948.594 1.281.271.323.6.558.985.703.385.136.833.203 1.343.203.771 0 1.464-.135 2.078-.406a4.79 4.79 0 001.594-1.14l1.75 2.656c-.302.396-.718.791-1.25 1.187-.531.396-1.166.72-1.906.97s-1.594.374-2.563.374zm8.515-24.312h4.36v20.078l-.313 3.922h-4.047v-24zm13.14 14.984v1.11c0 1.374-.109 2.572-.327 3.593-.209 1.02-.537 1.875-.985 2.563a4.21 4.21 0 01-1.687 1.546c-.688.344-1.5.516-2.438.516-.843 0-1.567-.198-2.172-.594-.604-.406-1.114-.963-1.53-1.672-.407-.718-.74-1.557-1-2.515a21.12 21.12 0 01-.548-3.172v-1.64c.104-1.126.282-2.173.532-3.141.26-.97.593-1.808 1-2.516.406-.719.911-1.276 1.515-1.672.615-.406 1.339-.61 2.172-.61.958 0 1.781.178 2.469.532.687.344 1.25.86 1.687 1.547.448.687.776 1.547.985 2.578.218 1.02.328 2.203.328 3.547zm-4.359 1.11v-1.11c0-.781-.03-1.453-.093-2.016-.063-.562-.177-1.03-.344-1.406a1.803 1.803 0 00-.719-.844c-.302-.187-.703-.28-1.203-.28-.448 0-.823.088-1.125.265a2.227 2.227 0 00-.781.75 3.634 3.634 0 00-.469 1.156 7.664 7.664 0 00-.156 1.453v2.953c.01.719.099 1.354.265 1.906.167.552.433.98.797 1.282.375.302.875.453 1.5.453.49 0 .886-.084 1.188-.25.302-.167.536-.433.703-.797.177-.365.292-.833.344-1.406a20.39 20.39 0 00.093-2.11zm20.578 7.906h-4.015l.031-3.782h3.984c1.105 0 1.964-.198 2.579-.593.614-.396 1.046-1.021 1.296-1.875.26-.855.391-1.974.391-3.36v-3.547c0-1.052-.068-1.942-.203-2.672-.135-.74-.365-1.333-.688-1.78a2.856 2.856 0 00-1.296-1.016c-.542-.22-1.214-.329-2.016-.329h-4.156v-3.796h4.156c1.313 0 2.505.213 3.578.64a7.58 7.58 0 012.766 1.875c.77.813 1.364 1.818 1.781 3.016.417 1.198.625 2.562.625 4.094v3.515c0 1.542-.208 2.906-.625 4.094-.417 1.187-1.01 2.193-1.781 3.016a7.496 7.496 0 01-2.766 1.859c-1.083.427-2.297.64-3.64.64zm-1.359-22.75v22.75h-4.578v-22.75h4.578zm20.11 23.062c-1.157 0-2.183-.177-3.079-.531a6.089 6.089 0 01-2.25-1.531c-.614-.677-1.083-1.495-1.406-2.454-.323-.958-.484-2.052-.484-3.28V62.74c0-1.375.156-2.579.469-3.61.312-1.041.755-1.916 1.328-2.625a5.248 5.248 0 012.109-1.578c.844-.354 1.797-.531 2.86-.531 1.062 0 1.994.177 2.796.531a4.878 4.878 0 012.016 1.563c.531.687.932 1.541 1.203 2.562.27 1.02.406 2.208.406 3.563v2H83.203v-3.079h7.031v-.39c0-.688-.072-1.26-.218-1.719-.146-.469-.375-.818-.688-1.047-.312-.229-.729-.344-1.25-.344-.437 0-.807.089-1.11.266-.301.177-.54.453-.718.828-.177.375-.307.865-.39 1.469a15.677 15.677 0 00-.126 2.14v1.391c0 .781.068 1.438.204 1.969.135.52.333.948.593 1.281.271.323.6.558.985.703.385.136.833.203 1.343.203.771 0 1.464-.135 2.079-.406a4.79 4.79 0 001.593-1.14l1.75 2.656c-.302.396-.719.791-1.25 1.187s-1.166.72-1.906.97-1.594.374-2.563.374zm13.265-3.687l2.719-13.532h4.562l-4.64 16.907h-2.735l.094-3.375zm-1.609-13.532l2.765 13.547.047 3.36h-2.75l-4.64-16.907h4.578zm17.593 17.22c-1.156 0-2.182-.178-3.078-.532a6.095 6.095 0 01-2.25-1.531c-.614-.677-1.083-1.495-1.406-2.454-.323-.958-.484-2.052-.484-3.28V62.74c0-1.375.156-2.579.468-3.61.313-1.041.756-1.916 1.329-2.625a5.25 5.25 0 012.109-1.578c.844-.354 1.797-.531 2.859-.531 1.063 0 1.995.177 2.797.531a4.874 4.874 0 012.016 1.563c.531.687.932 1.541 1.203 2.562.271 1.02.406 2.208.406 3.563v2h-11.328v-3.079h7.031v-.39c0-.688-.073-1.26-.218-1.719-.146-.469-.375-.818-.688-1.047-.312-.229-.729-.344-1.25-.344-.437 0-.807.089-1.109.266-.302.177-.542.453-.719.828-.177.375-.307.865-.391 1.469a15.742 15.742 0 00-.125 2.14v1.391c0 .781.068 1.438.204 1.969.135.52.333.948.593 1.281.271.323.599.558.985.703.385.136.833.203 1.343.203.771 0 1.464-.135 2.079-.406a4.794 4.794 0 001.593-1.14l1.75 2.656c-.302.396-.719.791-1.25 1.187s-1.166.72-1.906.97-1.594.374-2.563.374zm13.094-24.313v24h-4.39v-24h4.39zm2.969 16.125v-1.141c0-1.323.156-2.495.469-3.516.323-1.02.781-1.875 1.375-2.562a5.702 5.702 0 012.14-1.578c.844-.365 1.787-.547 2.829-.547 1.052 0 1.994.182 2.828.547.843.354 1.562.88 2.156 1.578.604.687 1.068 1.541 1.39 2.562.323 1.021.485 2.193.485 3.516v1.14c0 1.313-.162 2.48-.485 3.5-.322 1.021-.786 1.88-1.39 2.579a5.706 5.706 0 01-2.141 1.578c-.833.354-1.771.531-2.812.531-1.042 0-1.985-.177-2.828-.531a5.848 5.848 0 01-2.157-1.578c-.604-.698-1.067-1.558-1.39-2.578-.313-1.021-.469-2.188-.469-3.5zm4.375-1.141v1.14c0 .782.052 1.459.156 2.032.115.573.276 1.047.485 1.422.218.375.479.65.781.828.302.177.651.265 1.047.265.396 0 .75-.088 1.062-.265.313-.177.568-.453.766-.828.208-.375.359-.85.453-1.422.104-.573.156-1.25.156-2.031v-1.141c0-.76-.057-1.427-.172-2-.114-.583-.276-1.057-.484-1.422-.208-.375-.469-.656-.781-.844a1.84 1.84 0 00-1.031-.297c-.386 0-.73.1-1.032.297-.291.188-.547.47-.765.844-.209.365-.37.839-.485 1.422-.104.573-.156 1.24-.156 2zm16.438-4.64v20.156h-4.36V54.708h4.031l.329 3.25zm8.781 4.624v1.125c0 1.323-.115 2.495-.344 3.516-.229 1.01-.573 1.87-1.031 2.578-.448.698-1.011 1.23-1.688 1.594-.677.354-1.468.531-2.375.531-.843 0-1.573-.198-2.187-.594-.604-.406-1.115-.963-1.532-1.672-.416-.708-.75-1.536-1-2.484a23.372 23.372 0 01-.578-3.047v-1.75c.125-1.156.308-2.219.547-3.187.24-.98.568-1.828.985-2.547.427-.719.942-1.271 1.546-1.656.615-.396 1.344-.594 2.188-.594.917 0 1.714.166 2.391.5a4.245 4.245 0 011.703 1.515c.458.667.802 1.516 1.031 2.547.229 1.032.344 2.24.344 3.625zm-4.375 1.125v-1.125c0-.812-.047-1.505-.141-2.078-.083-.573-.219-1.041-.406-1.406-.188-.365-.432-.63-.735-.797-.302-.167-.671-.25-1.109-.25a2.42 2.42 0 00-1.125.25 1.993 1.993 0 00-.766.734 3.717 3.717 0 00-.453 1.157 7.373 7.373 0 00-.171 1.53v3.063a7 7 0 00.265 1.797c.167.521.432.938.797 1.25.365.302.859.453 1.484.453.448 0 .818-.093 1.11-.28.302-.188.547-.47.734-.845.188-.375.318-.849.391-1.421.083-.573.125-1.25.125-2.032zm13.875 8.22c-1.157 0-2.183-.178-3.078-.532a6.08 6.08 0 01-2.25-1.531c-.615-.677-1.084-1.495-1.407-2.454-.323-.958-.484-2.052-.484-3.28V62.74c0-1.375.156-2.579.469-3.61.312-1.041.755-1.916 1.328-2.625a5.25 5.25 0 012.109-1.578c.844-.354 1.797-.531 2.86-.531 1.062 0 1.994.177 2.796.531a4.874 4.874 0 012.016 1.563c.531.687.932 1.541 1.203 2.562.271 1.02.407 2.208.407 3.563v2h-11.329v-3.079h7.032v-.39c0-.688-.073-1.26-.219-1.719-.146-.469-.375-.818-.688-1.047-.312-.229-.729-.344-1.25-.344-.437 0-.807.089-1.109.266-.302.177-.542.453-.719.828-.177.375-.307.865-.39 1.469a15.582 15.582 0 00-.125 2.14v1.391c0 .781.067 1.438.203 1.969.135.52.333.948.594 1.281.27.323.598.558.984.703.385.136.833.203 1.344.203.77 0 1.463-.135 2.078-.406a4.798 4.798 0 001.594-1.14l1.75 2.656c-.303.396-.719.791-1.25 1.187-.532.396-1.167.72-1.907.97-.739.25-1.593.374-2.562.374zm12.875-13.454v13.14h-4.375V54.709h4.125l.25 3.766zm3.984-3.89l-.062 4.359a5.556 5.556 0 00-.719-.094 9.526 9.526 0 00-.719-.031c-.489 0-.906.078-1.25.234a2.08 2.08 0 00-.859.672 3.108 3.108 0 00-.5 1.094 6.827 6.827 0 00-.203 1.484l-.828-.312c0-1.105.083-2.115.25-3.032.177-.927.437-1.729.781-2.406.343-.687.755-1.219 1.234-1.594a2.656 2.656 0 011.656-.562c.209 0 .427.02.657.062.239.032.427.073.562.125z" fill="#fff"/><g filter="url(#filter1_d_118_246)"><path d="M48 6.313a1 1 0 011-1h3.901a1 1 0 01.622.217l8.863 7.044a1 1 0 001.234.008l9.11-7.06a1 1 0 01.612-.21H77a1 1 0 011 1v27a1 1 0 01-1 1h-6.63a1 1 0 01-.994-1.112l1.1-9.718c.1-.888-.926-1.452-1.621-.891l-5.227 4.215a1 1 0 01-1.256 0l-5.175-4.174c-.703-.566-1.738.015-1.62.91l1.274 9.64a1 1 0 01-.992 1.13H49a1 1 0 01-1-1v-27z" fill="#07455C"/></g><g filter="url(#filter2_d_118_246)"><path fill-rule="evenodd" clip-rule="evenodd" d="M49.5 6.813v26h5.789l-1.199-9.075c-.295-2.238 2.291-3.69 4.048-2.273L63 25.385l4.913-3.962c1.74-1.402 4.305.007 4.054 2.228l-1.038 9.162H76.5v-26h-2.987l-8.974 6.954a2.5 2.5 0 01-3.087-.019l-8.725-6.935H49.5zm-.5-1.5a1 1 0 00-1 1v27a1 1 0 001 1h6.86a1 1 0 00.99-1.131l-1.273-9.64c-.118-.895.917-1.476 1.62-.91l5.175 4.174a1 1 0 001.256 0l5.227-4.215c.695-.561 1.722.003 1.621.89l-1.1 9.719a1 1 0 00.994 1.112H77a1 1 0 001-1v-27a1 1 0 00-1-1h-3.658a1 1 0 00-.612.21l-9.11 7.06a1 1 0 01-1.234-.008L53.523 5.53a1 1 0 00-.622-.218H49z" fill="#fff"/></g><defs><filter id="filter0_d_118_246" x="78.44" y="6.056" width="63.821" height="37.268" filterUnits="userSpaceOnUse" color-interpolation-filters="sRGB"><feFlood flood-opacity="0" result="BackgroundImageFix"/><feColorMatrix in="SourceAlpha" values="0 0 0 0 0 0 0 0 0 0 0 0 0 0 0 0 0 0 127 0" result="hardAlpha"/><feOffset dy="4"/><feGaussianBlur stdDeviation="2"/><feComposite in2="hardAlpha" operator="out"/><feColorMatrix values="0 0 0 0 0 0 0 0 0 0 0 0 0 0 0 0 0 0 0.25 0"/><feBlend in2="BackgroundImageFix" result="effect1_dropShadow_118_246"/><feBlend in="SourceGraphic" in2="effect1_dropShadow_118_246" result="shape"/></filter><filter id="filter1_d_118_246" x="44" y="5.313" width="38" height="37" filterUnits="userSpaceOnUse" color-interpolation-filters="sRGB"><feFlood flood-opacity="0" result="BackgroundImageFix"/><feColorMatrix in="SourceAlpha" values="0 0 0 0 0 0 0 0 0 0 0 0 0 0 0 0 0 0 127 0" result="hardAlpha"/><feOffset dy="4"/><feGaussianBlur stdDeviation="2"/><feComposite in2="hardAlpha" operator="out"/><feColorMatrix values="0 0 0 0 0 0 0 0 0 0 0 0 0 0 0 0 0 0 0.25 0"/><feBlend in2="BackgroundImageFix" result="effect1_dropShadow_118_246"/><feBlend in="SourceGraphic" in2="effect1_dropShadow_118_246" result="shape"/></filter><filter id="filter2_d_118_246" x="44" y="5.313" width="38" height="37" filterUnits="userSpaceOnUse" color-interpolation-filters="sRGB"><feFlood flood-opacity="0" result="BackgroundImageFix"/><feColorMatrix in="SourceAlpha" values="0 0 0 0 0 0 0 0 0 0 0 0 0 0 0 0 0 0 127 0" result="hardAlpha"/><feOffset dy="4"/><feGaussianBlur stdDeviation="2"/><feComposite in2="hardAlpha" operator="out"/><feColorMatrix values="0 0 0 0 0 0 0 0 0 0 0 0 0 0 0 0 0 0 0.25 0"/><feBlend in2="BackgroundImageFix" result="effect1_dropShadow_118_246"/><feBlend in="SourceGraphic" in2="effect1_dropShadow_118_246" result="shape"/></filter></defs></svg>