<svg width="38" height="37" fill="none" xmlns="http://www.w3.org/2000/svg"><g filter="url(#filter0_d_125_2)"><path d="M4 1a1 1 0 011-1h3.901a1 1 0 01.622.217l8.863 7.045a1 1 0 001.234.007L28.73.21a1 1 0 01.612-.21H33a1 1 0 011 1v27a1 1 0 01-1 1h-6.63a1 1 0 01-.994-1.113l1.1-9.718c.1-.888-.926-1.452-1.621-.89l-5.227 4.215a1 1 0 01-1.256 0l-5.175-4.174c-.703-.567-1.738.014-1.62.91l1.274 9.64a1 1 0 01-.992 1.13H5a1 1 0 01-1-1V1z" fill="#07455C"/></g><g filter="url(#filter1_d_125_2)"><path fill-rule="evenodd" clip-rule="evenodd" d="M5.5 1.5v26h5.789l-1.199-9.074c-.295-2.238 2.291-3.69 4.048-2.274L19 20.073l4.913-3.962c1.74-1.403 4.305.007 4.054 2.227L26.929 27.5H32.5v-26h-2.987L20.54 8.455a2.5 2.5 0 01-3.087-.02L8.726 1.5H5.5zM5 0a1 1 0 00-1 1v27a1 1 0 001 1h6.86a1 1 0 00.99-1.13l-1.273-9.64c-.118-.896.917-1.477 1.62-.91l5.175 4.174a1 1 0 001.256 0l5.227-4.215c.695-.562 1.722.002 1.621.89l-1.1 9.718A1 1 0 0026.37 29H33a1 1 0 001-1V1a1 1 0 00-1-1h-3.658a1 1 0 00-.612.21l-9.11 7.06a1 1 0 01-1.234-.008L9.523.217A1 1 0 008.901 0H5z" fill="#fff"/></g><defs><filter id="filter0_d_125_2" x="0" y="0" width="38" height="37" filterUnits="userSpaceOnUse" color-interpolation-filters="sRGB"><feFlood flood-opacity="0" result="BackgroundImageFix"/><feColorMatrix in="SourceAlpha" values="0 0 0 0 0 0 0 0 0 0 0 0 0 0 0 0 0 0 127 0" result="hardAlpha"/><feOffset dy="4"/><feGaussianBlur stdDeviation="2"/><feComposite in2="hardAlpha" operator="out"/><feColorMatrix values="0 0 0 0 0 0 0 0 0 0 0 0 0 0 0 0 0 0 0.25 0"/><feBlend in2="BackgroundImageFix" result="effect1_dropShadow_125_2"/><feBlend in="SourceGraphic" in2="effect1_dropShadow_125_2" result="shape"/></filter><filter id="filter1_d_125_2" x="0" y="0" width="38" height="37" filterUnits="userSpaceOnUse" color-interpolation-filters="sRGB"><feFlood flood-opacity="0" result="BackgroundImageFix"/><feColorMatrix in="SourceAlpha" values="0 0 0 0 0 0 0 0 0 0 0 0 0 0 0 0 0 0 127 0" result="hardAlpha"/><feOffset dy="4"/><feGaussianBlur stdDeviation="2"/><feComposite in2="hardAlpha" operator="out"/><feColorMatrix values="0 0 0 0 0 0 0 0 0 0 0 0 0 0 0 0 0 0 0.25 0"/><feBlend in2="BackgroundImageFix" result="effect1_dropShadow_125_2"/><feBlend in="SourceGraphic" in2="effect1_dropShadow_125_2" result="shape"/></filter></defs></svg>