<svg width="96" height="96" fill="none" xmlns="http://www.w3.org/2000/svg"><path fill-rule="evenodd" clip-rule="evenodd" d="M1.5 16A4.5 4.5 0 016 11.5h84a4.5 4.5 0 014.5 4.5v64a4.5 4.5 0 01-4.5 4.5H6A4.5 4.5 0 011.5 80V16zm88.11-1.5H6.39c-1.41 0-2.04 1.767-.951 2.66l39.708 32.56a4.5 4.5 0 005.706 0l39.708-32.56c1.09-.893.458-2.66-.95-2.66zM4.5 20.27v55.46L38.317 48 4.5 20.27zm36.183 29.67L5.439 78.84c-1.09.893-.458 2.66.95 2.66H89.61c1.41 0 2.04-1.767.951-2.66l-35.244-28.9-2.561 2.1a7.5 7.5 0 01-9.512 0l-2.561-2.1zm17-1.94L91.5 20.27v55.46L57.683 48z" fill="#fff"/></svg>