<svg height="24" width="24" xmlns="http://www.w3.org/2000/svg" viewBox="0 0 493.665 493.665"><g fill="#fff"><path d="M186.364 371.744c-28.084 0-55.039-6.292-80.099-18.704l-43.13-21.354 21.354 43.13c36.286 73.312 109.589 118.848 191.298 118.848 117.653 0 213.375-95.722 213.375-213.375 0-81.708-45.536-155.012-118.848-191.298l-43.138-21.354 21.354 43.138c12.404 25.069 18.696 52.015 18.696 80.107-.001 99.723-81.133 180.862-180.862 180.862zm197.118-180.861c0-31.36-7.356-60.989-20.386-87.317 65.053 32.205 109.801 99.226 109.801 176.731 0 108.866-88.252 197.118-197.118 197.118-77.506 0-144.526-44.748-176.731-109.801 26.32 13.03 55.957 20.386 87.317 20.386 108.865.001 197.117-88.251 197.117-197.117z"/><path d="M43.724 318.656l63.46-46.097 63.46 46.105-24.239-74.596 63.46-46.105h-78.449l-24.239-74.596-24.239 74.596H4.503l63.452 46.105-24.231 74.588zM54.535 214.22h40.212l12.429-38.245 12.429 38.245h40.212l-32.539 23.638 12.429 38.237-32.531-23.63-32.539 23.638 12.429-38.245-32.531-23.638z"/><path d="M165.14 171.651l55.77-40.529 55.77 40.521-21.297-65.565 55.77-40.513h-68.938L220.91 0l-21.305 65.565h-68.938l55.77 40.521-21.297 65.565zm15.566-89.829h30.718l9.486-29.206 9.486 29.206h30.718l-24.849 18.054 9.494 29.206-24.849-18.045-24.849 18.054 9.494-29.206-24.849-18.063z"/></g></svg>