<svg width="72" height="65" fill="none" xmlns="http://www.w3.org/2000/svg"><path d="M0 32.208c0 5.43 5.277 10.5 13.597 13.356-1.662 8.405-.298 15.178 4.256 17.818 4.682 2.712 11.656.835 18.276-4.98 6.453 5.58 12.974 7.776 17.525 5.129 4.677-2.72 6.1-9.954 4.392-18.62 8.665-2.88 13.512-7.202 13.512-12.703 0-5.304-5.286-9.893-13.494-12.732 1.838-9.025.281-15.634-4.462-18.383-4.573-2.65-11.17-.34-17.718 5.386C29.073.4 22.54-1.454 17.802 1.302c-4.569 2.657-5.872 9.554-4.205 18.114C5.557 22.232 0 26.925 0 32.208z" fill="#fff"/><path d="M56.326 22.295a42.407 42.407 0 00-2.046-.648c.116-.474.222-.942.316-1.402 1.549-7.553.536-13.638-2.921-15.642-3.315-1.92-8.737.082-14.213 4.87-.527.461-1.055.948-1.583 1.46a38.64 38.64 0 00-1.052-.978c-5.74-5.12-11.492-7.278-14.946-5.268-3.312 1.926-4.293 7.647-2.899 14.805.135.692.292 1.398.47 2.116-.814.232-1.6.48-2.352.743-6.728 2.357-11.025 6.051-11.025 9.883 0 3.957 4.613 7.927 11.62 10.334.554.19 1.128.369 1.719.54a41.952 41.952 0 00-.5 2.279c-1.328 7.034-.29 12.62 3.013 14.534 3.412 1.977 9.138-.055 14.714-4.953.44-.387.883-.798 1.326-1.228a41.895 41.895 0 001.718 1.575c5.401 4.67 10.736 6.556 14.036 4.636 3.408-1.982 4.516-7.983 3.078-15.282a36.218 36.218 0 00-.381-1.707c.402-.12.797-.243 1.182-.371 7.285-2.426 12.025-6.347 12.025-10.357 0-3.846-4.435-7.565-11.299-9.94z" fill="#53C1DE"/><path d="M54.746 40.001c-.348.116-.704.228-1.068.336-.804-2.559-1.89-5.28-3.218-8.09 1.268-2.744 2.312-5.43 3.093-7.972.65.19 1.281.389 1.89.6 5.88 2.034 9.467 5.041 9.467 7.359 0 2.468-3.874 5.673-10.164 7.767zm-2.61 5.197c.636 3.228.726 6.147.305 8.428-.378 2.05-1.14 3.417-2.08 3.965-2.003 1.164-6.286-.35-10.905-4.344a38.983 38.983 0 01-1.598-1.464c1.79-1.968 3.58-4.255 5.327-6.796 3.072-.274 5.975-.722 8.607-1.334.13.526.244 1.041.344 1.545zM25.74 57.39c-1.957.694-3.515.714-4.458.169-2.004-1.162-2.838-5.647-1.7-11.662.13-.69.284-1.397.463-2.12 2.603.578 5.485.994 8.564 1.245 1.759 2.486 3.6 4.772 5.456 6.773-.406.393-.81.767-1.211 1.12-2.466 2.166-4.937 3.702-7.114 4.475zm-9.167-17.403c-3.1-1.064-5.658-2.447-7.412-3.957-1.577-1.356-2.372-2.703-2.372-3.795 0-2.326 3.45-5.291 9.204-7.307a38.987 38.987 0 012.187-.692c.795 2.6 1.839 5.317 3.098 8.065-1.276 2.789-2.334 5.55-3.137 8.18a32.19 32.19 0 01-1.568-.494zm3.072-21.018c-1.194-6.133-.4-10.76 1.595-11.92 2.126-1.237 6.828.526 11.783 4.947.316.283.634.579.953.885-1.846 1.992-3.67 4.26-5.413 6.731-2.99.279-5.85.726-8.48 1.325a40.125 40.125 0 01-.438-1.968zM47.06 25.77a86.832 86.832 0 00-1.932-3.194c2.027.258 3.97.6 5.794 1.018a58.438 58.438 0 01-2.034 5.499 95.083 95.083 0 00-1.828-3.323zM35.88 14.83a58.26 58.26 0 013.74 4.536 79.552 79.552 0 00-7.511-.002 60.114 60.114 0 013.771-4.535zM24.63 25.788a80.75 80.75 0 00-1.794 3.302 60.421 60.421 0 01-2.02-5.526 60.933 60.933 0 015.762-.993 80.327 80.327 0 00-1.948 3.217zm2.006 16.301a57.558 57.558 0 01-5.857-.946 61.42 61.42 0 012.06-5.637 80.674 80.674 0 003.797 6.584zm9.32 7.74a61.183 61.183 0 01-3.824-4.597c1.217.048 2.457.072 3.718.072 1.295 0 2.576-.03 3.836-.086a58.025 58.025 0 01-3.73 4.612zM48.913 35.41a58.013 58.013 0 012.134 5.617 57.451 57.451 0 01-5.928 1.015 95.522 95.522 0 001.951-3.249 86.7 86.7 0 001.843-3.383zm-4.194 2.02a89.508 89.508 0 01-3.05 4.943 81.372 81.372 0 01-5.819.205c-1.978 0-3.901-.061-5.754-.182a77.413 77.413 0 01-3.106-4.95 76.782 76.782 0 01-2.711-5.146 77.52 77.52 0 012.703-5.148 76.696 76.696 0 013.081-4.929 76.586 76.586 0 015.787-.218c1.968 0 3.908.075 5.797.22a82.18 82.18 0 013.063 4.913 89.577 89.577 0 012.74 5.123 82.331 82.331 0 01-2.732 5.17zm5.6-30.463c2.128 1.234 2.956 6.207 1.618 12.728-.085.416-.18.84-.285 1.27-2.637-.611-5.5-1.066-8.497-1.349-1.747-2.498-3.556-4.77-5.372-6.737.488-.472.976-.922 1.461-1.347C43.936 7.43 48.321 5.81 50.32 6.966z" fill="#fff"/><path d="M35.85 26.532c3.134 0 5.675 2.552 5.675 5.702 0 3.149-2.54 5.702-5.675 5.702-3.134 0-5.675-2.553-5.675-5.702 0-3.15 2.541-5.703 5.675-5.703z" fill="#53C1DE"/></svg>