<svg width="162" height="41" viewBox="0 0 162 41" fill="none" xmlns="http://www.w3.org/2000/svg">
<path fill-rule="evenodd" clip-rule="evenodd" d="M154.373 2.99438L161.139 3.03552C161.139 3.03552 148.56 21.8942 147.533 23.4312C147.199 23.9289 146.692 24.4657 146.435 25.131C145.786 26.8038 145.119 30.4728 145.119 30.4728L138.928 30.5067C138.928 30.5067 139.891 26.6824 139.851 24.6453C139.816 22.8656 138.995 21.0884 138.535 19.3035C138.069 17.4971 137.437 13.9618 137.437 13.9618H143.802L144.68 17.8468L154.373 2.99438Z" fill="#1A1918"/>
<path fill-rule="evenodd" clip-rule="evenodd" d="M141.561 6.97174C142.81 7.80468 143.576 12.3985 143.576 12.3985C143.576 12.3985 137.043 12.5051 133.487 12.5051H130.415L126.684 30.473H120.978C120.978 30.473 124.529 10.9465 125.368 7.40638C125.64 6.26049 127.229 6.4569 129.912 6.4569H134.198C136.966 6.4569 140.201 6.06613 141.561 6.97174Z" fill="#1A1918"/>
<path fill-rule="evenodd" clip-rule="evenodd" d="M114.998 15.7224C114.998 15.7224 115.176 14.569 114.395 13.2336C113.728 12.0949 113.111 11.8303 111.356 11.7696C106.398 11.5972 106.494 15.6618 106.494 15.6618L114.998 15.7224ZM120.375 11.0679C121.102 13.9671 119.717 20.7801 119.717 20.7801C119.717 20.7801 112.485 20.6464 108.525 20.7801C107.293 20.8215 105.819 20.632 105.452 21.2658C104.936 22.1542 105.641 23.5216 106.238 24.0991C106.925 24.7645 108.263 24.8399 108.744 24.9077C111.959 25.3595 118.688 25.0243 118.688 25.0243L117.522 30.7349C117.522 30.7349 108.013 31.2621 103.257 30.0065C102.318 29.759 101.438 29.2589 100.843 28.5497C100.681 28.3557 100.54 28.0911 100.387 27.8628C100.264 27.6804 99.9066 27.0809 99.7461 26.6072C98.6599 23.4047 99.8734 17.269 101.063 13.9815C101.201 13.6003 101.374 13.1174 101.557 12.7067C101.785 12.1946 101.978 11.6167 102.16 11.3106C102.283 11.0995 102.435 10.9634 102.562 10.7642C102.709 10.5287 102.88 10.3005 103.038 10.0968C103.477 9.53333 103.975 9.13503 104.574 8.64006C106.556 6.99852 110.142 5.72374 114.45 6.21185C116.072 6.39627 118.521 7.03725 119.717 8.88274C120.037 9.37565 120.195 10.3539 120.375 11.0679Z" fill="#1A1918"/>
<path fill-rule="evenodd" clip-rule="evenodd" d="M94.2048 6.43477L99.7373 6.39844C99.7373 6.39844 96.6541 22.5815 95.0828 30.4728H88.7183C84.2701 30.4728 80.3089 31.0822 78.6235 27.5589C76.9886 24.138 78.5488 18.512 79.2818 14.6901C79.7998 11.9853 80.8907 6.45671 80.8907 6.45671L86.6228 6.39844C86.6228 6.39844 85.0031 15.0058 84.3293 19.3035C84.0879 20.8429 83.5901 22.2925 84.1099 23.4312C84.6037 24.5144 85.2949 24.5918 87.4016 24.6453C88.069 24.6624 90.2547 24.6453 90.2547 24.6453L94.2048 6.43477Z" fill="#1A1918"/>
<path fill-rule="evenodd" clip-rule="evenodd" d="M68.3091 18.0895C68.8884 15.8121 69.7332 13.3428 69.6257 11.2909C69.5096 9.09614 67.8462 7.09777 66.773 6.67788C63.5405 5.4151 60.5142 7.18038 59.3116 8.62003C57.7554 10.4851 57.2287 12.663 56.6779 15.6616C56.2677 17.8879 55.9318 20.2383 56.6779 21.9745C57.9989 25.0437 62.1181 24.3736 66.5534 24.4027C67.2117 22.4506 67.756 20.2579 68.3091 18.0895ZM75.9902 9.10574C76.6222 14.1901 74.1973 19.8016 72.5271 24.6817C74.2301 24.8517 75.7225 24.6553 75.83 24.7959C75.9418 24.9782 74.6887 30.6209 74.2518 30.6353C72.9001 30.6744 68.4212 30.7155 66.5534 30.7155C60.4591 30.7155 54.7577 31.155 51.8501 27.802C50.6694 26.4398 49.8531 24.1038 49.6554 22.4602C49.3261 19.7163 49.7388 16.6958 50.3138 14.2048C50.8339 11.9562 51.501 9.83414 52.5085 7.89164C55.0693 2.94576 59.5244 -0.725342 66.9924 0.121993C68.4407 0.28721 70.5211 0.988867 71.8204 1.82146C71.9103 1.88008 72.2244 2.1567 72.2966 2.20537C74.0523 3.44141 75.6522 6.39132 75.9902 9.10574Z" fill="#1A1918"/>
<path fill-rule="evenodd" clip-rule="evenodd" d="M49.0256 6.46419C48.6569 8.32168 48.2882 10.427 47.8997 12.2625H41.755C42.2312 10.2278 42.5955 8.20514 43.0717 6.43506C45.038 6.43506 46.8662 6.46419 49.0256 6.46419Z" fill="#1A1918"/>
<path fill-rule="evenodd" clip-rule="evenodd" d="M41.5356 13.9619H47.4607C46.6862 18.7066 45.1523 26.3597 43.9496 31.6867C43.1968 35.0205 42.6943 37.4535 40.6576 39.2137C40.4754 39.3717 40.3704 39.2966 40.2189 39.4567C39.8434 39.8526 38.1075 40.3116 37.1465 40.4278C35.5838 40.6149 33.8173 40.4521 31.8971 40.4086C32.3996 38.3763 32.9681 35.9361 33.4158 34.1149C38.0967 34.7415 38.2154 29.8464 39.1215 25.1312C39.6461 22.4068 41.2351 15.0547 41.5356 13.9619Z" fill="#1A1918"/>
<path fill-rule="evenodd" clip-rule="evenodd" d="M27.7097 26.3453L27.5827 26.7093C25.4187 31.371 21.5848 34.2315 16.116 34.3576C13.5595 34.4159 11.1235 33.6902 9.53227 32.9008C6.09803 31.1938 3.20967 28.028 1.63212 24.6455C-0.630726 19.7966 -1.03875 13.0515 3.66633 8.01343C3.73883 8.01343 3.09566 9.10585 3.16816 9.10585L3.03866 9.57202C-0.351897 21.3165 10.094 31.381 20.2483 30.2299C22.6886 29.9533 25.8007 28.4746 27.7097 26.3453Z" fill="#21609B"/>
<path fill-rule="evenodd" clip-rule="evenodd" d="M21.565 21.4889C24.1196 21.5084 26.788 20.1874 28.3681 18.3326C26.9857 22.2152 22.983 24.711 17.6149 23.9171C13.1205 23.2518 8.8389 18.2476 8.39774 13.2335C8.07522 9.58438 9.22493 7.4064 11.1191 4.76465C10.4608 6.14637 10.2148 7.21205 10.1534 7.89177C9.43374 15.7855 15.8527 21.4478 21.565 21.4889Z" fill="#21609B"/>
<path fill-rule="evenodd" clip-rule="evenodd" d="M28.1116 11.6845C27.7144 12.6922 25.4277 14.5957 24.418 14.8335C20.4196 15.7758 17.8587 13.6781 16.5176 11.291C16.318 10.9342 15.9494 9.96068 15.8834 9.71285C15.3632 7.75596 15.6024 4.79611 17.1542 3.26392C16.6867 4.7207 16.6186 6.41298 16.8645 7.51294C17.0136 8.17826 17.4677 9.33923 17.9222 10.0697C18.7494 11.4003 19.2739 11.7236 20.3363 12.43C20.8146 12.7481 21.328 13.0031 21.5498 13.0734C22.557 13.4011 24.6835 14.2656 28.1116 11.6845Z" fill="#21609B"/>
</svg>
