<svg width="193" height="85" viewBox="0 0 193 85" fill="none" xmlns="http://www.w3.org/2000/svg">
<g filter="url(#filter0_d_118_246)">
<path d="M83.196 35V15.488H90.036V35H83.196ZM86.616 13.328C85.368 13.328 84.36 12.98 83.592 12.284C82.824 11.588 82.44 10.724 82.44 9.692C82.44 8.66 82.824 7.796 83.592 7.1C84.36 6.404 85.368 6.056 86.616 6.056C87.864 6.056 88.872 6.392 89.64 7.064C90.408 7.712 90.792 8.552 90.792 9.584C90.792 10.664 90.408 11.564 89.64 12.284C88.896 12.98 87.888 13.328 86.616 13.328ZM100.169 31.4L100.349 23.228L108.305 15.488H116.405L107.585 24.596L104.093 27.404L100.169 31.4ZM94.4812 35V8.288H101.321V35H94.4812ZM108.809 35L102.833 27.512L107.081 22.256L117.089 35H108.809ZM128.541 35.324C126.237 35.324 124.221 34.892 122.493 34.028C120.789 33.14 119.457 31.94 118.497 30.428C117.561 28.892 117.093 27.152 117.093 25.208C117.093 23.264 117.549 21.536 118.461 20.024C119.397 18.488 120.681 17.3 122.313 16.46C123.945 15.596 125.781 15.164 127.821 15.164C129.741 15.164 131.493 15.56 133.077 16.352C134.661 17.12 135.921 18.26 136.857 19.772C137.793 21.284 138.261 23.12 138.261 25.28C138.261 25.52 138.249 25.796 138.225 26.108C138.201 26.42 138.177 26.708 138.153 26.972H122.709V23.372H134.517L131.925 24.38C131.949 23.492 131.781 22.724 131.421 22.076C131.085 21.428 130.605 20.924 129.981 20.564C129.381 20.204 128.673 20.024 127.857 20.024C127.041 20.024 126.321 20.204 125.697 20.564C125.097 20.924 124.629 21.44 124.293 22.112C123.957 22.76 123.789 23.528 123.789 24.416V25.46C123.789 26.42 123.981 27.248 124.365 27.944C124.773 28.64 125.349 29.18 126.093 29.564C126.837 29.924 127.725 30.104 128.757 30.104C129.717 30.104 130.533 29.972 131.205 29.708C131.901 29.42 132.585 28.988 133.257 28.412L136.857 32.156C135.921 33.188 134.769 33.98 133.401 34.532C132.033 35.06 130.413 35.324 128.541 35.324Z" fill="white"/>
</g>
<path d="M6.48438 68.2083L10.125 48.8646H12.5312L13.25 51.8646L9.34375 71.6146H6.73438L6.48438 68.2083ZM5.23438 48.8646L8.17188 68.2552L7.67188 71.6146H4.79688L0.71875 48.8646H5.23438ZM15.8906 68.1771L18.8125 48.8646H23.3125L19.2656 71.6146H16.375L15.8906 68.1771ZM13.9219 48.8646L17.5938 68.3177L17.2969 71.6146H14.6875L10.7969 51.8333L11.5312 48.8646H13.9219ZM31.9375 71.9271C30.7812 71.9271 29.7552 71.75 28.8594 71.3958C27.974 71.0416 27.224 70.5312 26.6094 69.8646C25.9948 69.1875 25.526 68.3698 25.2031 67.4114C24.8802 66.4531 24.7188 65.3594 24.7188 64.1302V62.7396C24.7188 61.3646 24.875 60.1614 25.1875 59.1302C25.5 58.0885 25.9427 57.2135 26.5156 56.5052C27.0885 55.7969 27.7917 55.2708 28.625 54.9271C29.4688 54.5729 30.4219 54.3958 31.4844 54.3958C32.5469 54.3958 33.4792 54.5729 34.2812 54.9271C35.0938 55.2708 35.7656 55.7916 36.2969 56.4896C36.8281 57.1771 37.2292 58.0312 37.5 59.0521C37.7708 60.0729 37.9062 61.2604 37.9062 62.6146V64.6146H26.5781V61.5364H33.6094V61.1458C33.6094 60.4583 33.5365 59.8854 33.3906 59.4271C33.2448 58.9583 33.0156 58.6094 32.7031 58.3802C32.3906 58.151 31.974 58.0364 31.4531 58.0364C31.0156 58.0364 30.6458 58.125 30.3438 58.3021C30.0417 58.4791 29.8021 58.7552 29.625 59.1302C29.4479 59.5052 29.3177 59.9948 29.2344 60.5989C29.151 61.1927 29.1094 61.9062 29.1094 62.7396V64.1302C29.1094 64.9114 29.1771 65.5677 29.3125 66.0989C29.4479 66.6198 29.6458 67.0469 29.9062 67.3802C30.1771 67.7031 30.5052 67.9375 30.8906 68.0833C31.276 68.2187 31.724 68.2864 32.2344 68.2864C33.0052 68.2864 33.6979 68.151 34.3125 67.8802C34.9375 67.5989 35.4688 67.2187 35.9062 66.7396L37.6562 69.3958C37.3542 69.7916 36.9375 70.1875 36.4062 70.5833C35.875 70.9791 35.2396 71.3021 34.5 71.5521C33.7604 71.8021 32.9062 71.9271 31.9375 71.9271ZM40.4531 47.6146H44.8125V67.6927L44.5 71.6146H40.4531V47.6146ZM53.5938 62.5989V63.7083C53.5938 65.0833 53.4844 66.2812 53.2656 67.3021C53.0573 68.3229 52.7292 69.1771 52.2812 69.8646C51.8438 70.5521 51.2812 71.0677 50.5938 71.4114C49.9062 71.7552 49.0938 71.9271 48.1562 71.9271C47.3125 71.9271 46.5885 71.7291 45.9844 71.3333C45.3802 70.9271 44.8698 70.3698 44.4531 69.6614C44.0469 68.9427 43.7135 68.1041 43.4531 67.1458C43.2031 66.1771 43.0208 65.1198 42.9062 63.9739V62.3333C43.0104 61.2083 43.1875 60.1614 43.4375 59.1927C43.6979 58.2239 44.0312 57.3854 44.4375 56.6771C44.8438 55.9583 45.349 55.401 45.9531 55.0052C46.5677 54.5989 47.2917 54.3958 48.125 54.3958C49.0833 54.3958 49.9062 54.5729 50.5938 54.9271C51.2812 55.2708 51.8438 55.7864 52.2812 56.4739C52.7292 57.1614 53.0573 58.0208 53.2656 59.0521C53.4844 60.0729 53.5938 61.2552 53.5938 62.5989ZM49.2344 63.7083V62.5989C49.2344 61.8177 49.2031 61.1458 49.1406 60.5833C49.0781 60.0208 48.9635 59.5521 48.7969 59.1771C48.6302 58.8021 48.3906 58.5208 48.0781 58.3333C47.776 58.1458 47.375 58.0521 46.875 58.0521C46.4271 58.0521 46.0521 58.1406 45.75 58.3177C45.4479 58.4844 45.1875 58.7344 44.9688 59.0677C44.7604 59.3906 44.6042 59.776 44.5 60.2239C44.4062 60.6614 44.3542 61.1458 44.3438 61.6771V64.6302C44.3542 65.3489 44.4427 65.9844 44.6094 66.5364C44.776 67.0885 45.0417 67.5156 45.4062 67.8177C45.7812 68.1198 46.2812 68.2708 46.9062 68.2708C47.3958 68.2708 47.7917 68.1875 48.0938 68.0208C48.3958 67.8541 48.6302 67.5885 48.7969 67.2239C48.974 66.8594 49.0885 66.3906 49.1406 65.8177C49.2031 65.2344 49.2344 64.5312 49.2344 63.7083ZM69.8125 71.6146H65.7969L65.8281 67.8333H69.8125C70.9167 67.8333 71.776 67.6354 72.3906 67.2396C73.0052 66.8437 73.4375 66.2187 73.6875 65.3646C73.9479 64.5104 74.0781 63.3906 74.0781 62.0052V58.4583C74.0781 57.4062 74.0104 56.5156 73.875 55.7864C73.7396 55.0469 73.5104 54.4531 73.1875 54.0052C72.8646 53.5469 72.4323 53.2083 71.8906 52.9896C71.349 52.7708 70.6771 52.6614 69.875 52.6614H65.7188V48.8646H69.875C71.1875 48.8646 72.3802 49.0781 73.4531 49.5052C74.526 49.9323 75.4479 50.5573 76.2188 51.3802C76.9896 52.1927 77.5833 53.1979 78 54.3958C78.4167 55.5937 78.625 56.9583 78.625 58.4896V62.0052C78.625 63.5469 78.4167 64.9114 78 66.0989C77.5833 67.2864 76.9896 68.2916 76.2188 69.1146C75.4583 69.9271 74.5365 70.5469 73.4531 70.9739C72.3698 71.401 71.1562 71.6146 69.8125 71.6146ZM68.4531 48.8646V71.6146H63.875V48.8646H68.4531ZM88.5625 71.9271C87.4062 71.9271 86.3802 71.75 85.4844 71.3958C84.599 71.0416 83.849 70.5312 83.2344 69.8646C82.6198 69.1875 82.151 68.3698 81.8281 67.4114C81.5052 66.4531 81.3438 65.3594 81.3438 64.1302V62.7396C81.3438 61.3646 81.5 60.1614 81.8125 59.1302C82.125 58.0885 82.5677 57.2135 83.1406 56.5052C83.7135 55.7969 84.4167 55.2708 85.25 54.9271C86.0938 54.5729 87.0469 54.3958 88.1094 54.3958C89.1719 54.3958 90.1042 54.5729 90.9062 54.9271C91.7188 55.2708 92.3906 55.7916 92.9219 56.4896C93.4531 57.1771 93.8542 58.0312 94.125 59.0521C94.3958 60.0729 94.5312 61.2604 94.5312 62.6146V64.6146H83.2031V61.5364H90.2344V61.1458C90.2344 60.4583 90.1615 59.8854 90.0156 59.4271C89.8698 58.9583 89.6406 58.6094 89.3281 58.3802C89.0156 58.151 88.599 58.0364 88.0781 58.0364C87.6406 58.0364 87.2708 58.125 86.9688 58.3021C86.6667 58.4791 86.4271 58.7552 86.25 59.1302C86.0729 59.5052 85.9427 59.9948 85.8594 60.5989C85.776 61.1927 85.7344 61.9062 85.7344 62.7396V64.1302C85.7344 64.9114 85.8021 65.5677 85.9375 66.0989C86.0729 66.6198 86.2708 67.0469 86.5312 67.3802C86.8021 67.7031 87.1302 67.9375 87.5156 68.0833C87.901 68.2187 88.349 68.2864 88.8594 68.2864C89.6302 68.2864 90.3229 68.151 90.9375 67.8802C91.5625 67.5989 92.0938 67.2187 92.5312 66.7396L94.2812 69.3958C93.9792 69.7916 93.5625 70.1875 93.0312 70.5833C92.5 70.9791 91.8646 71.3021 91.125 71.5521C90.3854 71.8021 89.5312 71.9271 88.5625 71.9271ZM101.828 68.2396L104.547 54.7083H109.109L104.469 71.6146H101.734L101.828 68.2396ZM100.219 54.7083L102.984 68.2552L103.031 71.6146H100.281L95.6406 54.7083H100.219ZM117.812 71.9271C116.656 71.9271 115.63 71.75 114.734 71.3958C113.849 71.0416 113.099 70.5312 112.484 69.8646C111.87 69.1875 111.401 68.3698 111.078 67.4114C110.755 66.4531 110.594 65.3594 110.594 64.1302V62.7396C110.594 61.3646 110.75 60.1614 111.062 59.1302C111.375 58.0885 111.818 57.2135 112.391 56.5052C112.964 55.7969 113.667 55.2708 114.5 54.9271C115.344 54.5729 116.297 54.3958 117.359 54.3958C118.422 54.3958 119.354 54.5729 120.156 54.9271C120.969 55.2708 121.641 55.7916 122.172 56.4896C122.703 57.1771 123.104 58.0312 123.375 59.0521C123.646 60.0729 123.781 61.2604 123.781 62.6146V64.6146H112.453V61.5364H119.484V61.1458C119.484 60.4583 119.411 59.8854 119.266 59.4271C119.12 58.9583 118.891 58.6094 118.578 58.3802C118.266 58.151 117.849 58.0364 117.328 58.0364C116.891 58.0364 116.521 58.125 116.219 58.3021C115.917 58.4791 115.677 58.7552 115.5 59.1302C115.323 59.5052 115.193 59.9948 115.109 60.5989C115.026 61.1927 114.984 61.9062 114.984 62.7396V64.1302C114.984 64.9114 115.052 65.5677 115.188 66.0989C115.323 66.6198 115.521 67.0469 115.781 67.3802C116.052 67.7031 116.38 67.9375 116.766 68.0833C117.151 68.2187 117.599 68.2864 118.109 68.2864C118.88 68.2864 119.573 68.151 120.188 67.8802C120.812 67.5989 121.344 67.2187 121.781 66.7396L123.531 69.3958C123.229 69.7916 122.812 70.1875 122.281 70.5833C121.75 70.9791 121.115 71.3021 120.375 71.5521C119.635 71.8021 118.781 71.9271 117.812 71.9271ZM130.906 47.6146V71.6146H126.516V47.6146H130.906ZM133.875 63.7396V62.5989C133.875 61.276 134.031 60.1041 134.344 59.0833C134.667 58.0625 135.125 57.2083 135.719 56.5208C136.312 55.8229 137.026 55.2969 137.859 54.9427C138.703 54.5781 139.646 54.3958 140.688 54.3958C141.74 54.3958 142.682 54.5781 143.516 54.9427C144.359 55.2969 145.078 55.8229 145.672 56.5208C146.276 57.2083 146.74 58.0625 147.062 59.0833C147.385 60.1041 147.547 61.276 147.547 62.5989V63.7396C147.547 65.0521 147.385 66.2187 147.062 67.2396C146.74 68.2604 146.276 69.1198 145.672 69.8177C145.078 70.5156 144.365 71.0416 143.531 71.3958C142.698 71.75 141.76 71.9271 140.719 71.9271C139.677 71.9271 138.734 71.75 137.891 71.3958C137.057 71.0416 136.339 70.5156 135.734 69.8177C135.13 69.1198 134.667 68.2604 134.344 67.2396C134.031 66.2187 133.875 65.0521 133.875 63.7396ZM138.25 62.5989V63.7396C138.25 64.5208 138.302 65.1979 138.406 65.7708C138.521 66.3437 138.682 66.8177 138.891 67.1927C139.109 67.5677 139.37 67.8437 139.672 68.0208C139.974 68.1979 140.323 68.2864 140.719 68.2864C141.115 68.2864 141.469 68.1979 141.781 68.0208C142.094 67.8437 142.349 67.5677 142.547 67.1927C142.755 66.8177 142.906 66.3437 143 65.7708C143.104 65.1979 143.156 64.5208 143.156 63.7396V62.5989C143.156 61.8385 143.099 61.1719 142.984 60.5989C142.87 60.0156 142.708 59.5416 142.5 59.1771C142.292 58.8021 142.031 58.5208 141.719 58.3333C141.417 58.1354 141.073 58.0364 140.688 58.0364C140.302 58.0364 139.958 58.1354 139.656 58.3333C139.365 58.5208 139.109 58.8021 138.891 59.1771C138.682 59.5416 138.521 60.0156 138.406 60.5989C138.302 61.1719 138.25 61.8385 138.25 62.5989ZM154.688 57.9583V78.1146H150.328V54.7083H154.359L154.688 57.9583ZM163.469 62.5833V63.7083C163.469 65.0312 163.354 66.2031 163.125 67.2239C162.896 68.2344 162.552 69.0937 162.094 69.8021C161.646 70.5 161.083 71.0312 160.406 71.3958C159.729 71.75 158.938 71.9271 158.031 71.9271C157.188 71.9271 156.458 71.7291 155.844 71.3333C155.24 70.9271 154.729 70.3698 154.312 69.6614C153.896 68.9531 153.562 68.125 153.312 67.1771C153.062 66.2291 152.87 65.2135 152.734 64.1302V62.3802C152.859 61.2239 153.042 60.1614 153.281 59.1927C153.521 58.2135 153.849 57.3646 154.266 56.6458C154.693 55.9271 155.208 55.375 155.812 54.9896C156.427 54.5937 157.156 54.3958 158 54.3958C158.917 54.3958 159.714 54.5625 160.391 54.8958C161.078 55.2291 161.646 55.7344 162.094 56.4114C162.552 57.0781 162.896 57.9271 163.125 58.9583C163.354 59.9896 163.469 61.1979 163.469 62.5833ZM159.094 63.7083V62.5833C159.094 61.7708 159.047 61.0781 158.953 60.5052C158.87 59.9323 158.734 59.4635 158.547 59.0989C158.359 58.7344 158.115 58.4687 157.812 58.3021C157.51 58.1354 157.141 58.0521 156.703 58.0521C156.276 58.0521 155.901 58.1354 155.578 58.3021C155.266 58.4687 155.01 58.7135 154.812 59.0364C154.615 59.3489 154.464 59.7344 154.359 60.1927C154.255 60.6406 154.198 61.151 154.188 61.7239V64.7864C154.208 65.4635 154.297 66.0625 154.453 66.5833C154.62 67.1041 154.885 67.5208 155.25 67.8333C155.615 68.1354 156.109 68.2864 156.734 68.2864C157.182 68.2864 157.552 68.1927 157.844 68.0052C158.146 67.8177 158.391 67.5364 158.578 67.1614C158.766 66.7864 158.896 66.3125 158.969 65.7396C159.052 65.1666 159.094 64.4896 159.094 63.7083ZM172.969 71.9271C171.812 71.9271 170.786 71.75 169.891 71.3958C169.005 71.0416 168.255 70.5312 167.641 69.8646C167.026 69.1875 166.557 68.3698 166.234 67.4114C165.911 66.4531 165.75 65.3594 165.75 64.1302V62.7396C165.75 61.3646 165.906 60.1614 166.219 59.1302C166.531 58.0885 166.974 57.2135 167.547 56.5052C168.12 55.7969 168.823 55.2708 169.656 54.9271C170.5 54.5729 171.453 54.3958 172.516 54.3958C173.578 54.3958 174.51 54.5729 175.312 54.9271C176.125 55.2708 176.797 55.7916 177.328 56.4896C177.859 57.1771 178.26 58.0312 178.531 59.0521C178.802 60.0729 178.938 61.2604 178.938 62.6146V64.6146H167.609V61.5364H174.641V61.1458C174.641 60.4583 174.568 59.8854 174.422 59.4271C174.276 58.9583 174.047 58.6094 173.734 58.3802C173.422 58.151 173.005 58.0364 172.484 58.0364C172.047 58.0364 171.677 58.125 171.375 58.3021C171.073 58.4791 170.833 58.7552 170.656 59.1302C170.479 59.5052 170.349 59.9948 170.266 60.5989C170.182 61.1927 170.141 61.9062 170.141 62.7396V64.1302C170.141 64.9114 170.208 65.5677 170.344 66.0989C170.479 66.6198 170.677 67.0469 170.938 67.3802C171.208 67.7031 171.536 67.9375 171.922 68.0833C172.307 68.2187 172.755 68.2864 173.266 68.2864C174.036 68.2864 174.729 68.151 175.344 67.8802C175.969 67.5989 176.5 67.2187 176.938 66.7396L178.688 69.3958C178.385 69.7916 177.969 70.1875 177.438 70.5833C176.906 70.9791 176.271 71.3021 175.531 71.5521C174.792 71.8021 173.938 71.9271 172.969 71.9271ZM185.844 58.4739V71.6146H181.469V54.7083H185.594L185.844 58.4739ZM189.828 54.5833L189.766 58.9427C189.568 58.901 189.328 58.8698 189.047 58.8489C188.776 58.8281 188.536 58.8177 188.328 58.8177C187.839 58.8177 187.422 58.8958 187.078 59.0521C186.734 59.1979 186.448 59.4219 186.219 59.7239C186 60.0156 185.833 60.3802 185.719 60.8177C185.604 61.2552 185.536 61.75 185.516 62.3021L184.688 61.9896C184.688 60.8854 184.771 59.875 184.938 58.9583C185.115 58.0312 185.375 57.2291 185.719 56.5521C186.062 55.8646 186.474 55.3333 186.953 54.9583C187.443 54.5833 187.995 54.3958 188.609 54.3958C188.818 54.3958 189.036 54.4166 189.266 54.4583C189.505 54.4896 189.693 54.5312 189.828 54.5833Z" fill="white"/>
<g filter="url(#filter1_d_118_246)">
<path d="M48 6.3125C48 5.76021 48.4477 5.3125 49 5.3125H52.901C53.127 5.3125 53.3463 5.38905 53.5232 5.52968L62.3856 12.5741C62.7463 12.8608 63.2562 12.864 63.6204 12.5817L72.7296 5.52208C72.9049 5.38623 73.1204 5.3125 73.3421 5.3125H77C77.5523 5.3125 78 5.76022 78 6.3125V33.3125C78 33.8648 77.5523 34.3125 77 34.3125H70.3696C69.7728 34.3125 69.3088 33.7931 69.3759 33.2L70.4761 23.4819C70.5767 22.5937 69.5504 22.0299 68.8547 22.591L63.6278 26.8062C63.2614 27.1017 62.7386 27.1017 62.3722 26.8062L57.1966 22.6323C56.4938 22.0656 55.4592 22.6466 55.5774 23.5417L56.8506 33.1816C56.9298 33.7807 56.4635 34.3125 55.8592 34.3125H49C48.4477 34.3125 48 33.8648 48 33.3125V6.3125Z" fill="#07455C"/>
</g>
<g filter="url(#filter2_d_118_246)">
<path fill-rule="evenodd" clip-rule="evenodd" d="M49.5 6.8125V32.8125H55.2889L54.0904 23.7381C53.7948 21.5005 56.3813 20.0479 58.1382 21.4647L63 25.3855L67.9131 21.4233C69.6524 20.0206 72.2179 21.4303 71.9666 23.6506L70.9294 32.8125H76.5V6.8125H73.5132L64.5392 13.7673C63.6287 14.473 62.354 14.4651 61.4522 13.7483L52.7265 6.8125H49.5ZM49 5.3125C48.4477 5.3125 48 5.76021 48 6.3125V33.3125C48 33.8648 48.4477 34.3125 49 34.3125H55.8592C56.4635 34.3125 56.9298 33.7807 56.8506 33.1816L55.5774 23.5417C55.4592 22.6466 56.4938 22.0656 57.1966 22.6323L62.3722 26.8062C62.7386 27.1017 63.2614 27.1017 63.6278 26.8062L68.8547 22.591C69.5504 22.0299 70.5767 22.5937 70.4761 23.4819L69.3759 33.2C69.3088 33.7931 69.7728 34.3125 70.3696 34.3125H77C77.5523 34.3125 78 33.8648 78 33.3125V6.3125C78 5.76022 77.5523 5.3125 77 5.3125H73.3421C73.1204 5.3125 72.9049 5.38623 72.7296 5.52208L63.6204 12.5817C63.2562 12.864 62.7463 12.8608 62.3856 12.5741L53.5232 5.52968C53.3463 5.38905 53.127 5.3125 52.901 5.3125H49Z" fill="white"/>
</g>
<defs>
<filter id="filter0_d_118_246" x="78.44" y="6.05597" width="63.8211" height="37.268" filterUnits="userSpaceOnUse" color-interpolation-filters="sRGB">
<feFlood flood-opacity="0" result="BackgroundImageFix"/>
<feColorMatrix in="SourceAlpha" type="matrix" values="0 0 0 0 0 0 0 0 0 0 0 0 0 0 0 0 0 0 127 0" result="hardAlpha"/>
<feOffset dy="4"/>
<feGaussianBlur stdDeviation="2"/>
<feComposite in2="hardAlpha" operator="out"/>
<feColorMatrix type="matrix" values="0 0 0 0 0 0 0 0 0 0 0 0 0 0 0 0 0 0 0.25 0"/>
<feBlend mode="normal" in2="BackgroundImageFix" result="effect1_dropShadow_118_246"/>
<feBlend mode="normal" in="SourceGraphic" in2="effect1_dropShadow_118_246" result="shape"/>
</filter>
<filter id="filter1_d_118_246" x="44" y="5.3125" width="38" height="37" filterUnits="userSpaceOnUse" color-interpolation-filters="sRGB">
<feFlood flood-opacity="0" result="BackgroundImageFix"/>
<feColorMatrix in="SourceAlpha" type="matrix" values="0 0 0 0 0 0 0 0 0 0 0 0 0 0 0 0 0 0 127 0" result="hardAlpha"/>
<feOffset dy="4"/>
<feGaussianBlur stdDeviation="2"/>
<feComposite in2="hardAlpha" operator="out"/>
<feColorMatrix type="matrix" values="0 0 0 0 0 0 0 0 0 0 0 0 0 0 0 0 0 0 0.25 0"/>
<feBlend mode="normal" in2="BackgroundImageFix" result="effect1_dropShadow_118_246"/>
<feBlend mode="normal" in="SourceGraphic" in2="effect1_dropShadow_118_246" result="shape"/>
</filter>
<filter id="filter2_d_118_246" x="44" y="5.3125" width="38" height="37" filterUnits="userSpaceOnUse" color-interpolation-filters="sRGB">
<feFlood flood-opacity="0" result="BackgroundImageFix"/>
<feColorMatrix in="SourceAlpha" type="matrix" values="0 0 0 0 0 0 0 0 0 0 0 0 0 0 0 0 0 0 127 0" result="hardAlpha"/>
<feOffset dy="4"/>
<feGaussianBlur stdDeviation="2"/>
<feComposite in2="hardAlpha" operator="out"/>
<feColorMatrix type="matrix" values="0 0 0 0 0 0 0 0 0 0 0 0 0 0 0 0 0 0 0.25 0"/>
<feBlend mode="normal" in2="BackgroundImageFix" result="effect1_dropShadow_118_246"/>
<feBlend mode="normal" in="SourceGraphic" in2="effect1_dropShadow_118_246" result="shape"/>
</filter>
</defs>
</svg>
